<?xml version="1.0" standalone="no"?>
<!DOCTYPE svg PUBLIC "-//W3C//DTD SVG 20010904//EN"
 "http://www.w3.org/TR/2001/REC-SVG-20010904/DTD/svg10.dtd">
<svg version="1.0" xmlns="http://www.w3.org/2000/svg"
 width="512.000000pt" height="512.000000pt" viewBox="0 0 512.000000 512.000000"
 preserveAspectRatio="xMidYMid meet">

<g transform="translate(0.000000,512.000000) scale(0.100000,-0.100000)"
fill="#000000" stroke="none">
<path d="M595 5109 c-151 -22 -270 -84 -386 -199 -69 -68 -94 -102 -127 -170
-84 -171 -77 29 -77 -2180 0 -2209 -7 -2009 77 -2180 59 -120 178 -239 298
-298 171 -84 -29 -77 2180 -77 2209 0 2009 -7 2180 77 68 33 102 59 171 127
68 69 94 103 127 171 84 171 77 -29 77 2180 0 2209 7 2009 -77 2180 -59 120
-178 239 -298 298 -172 84 35 77 -2145 78 -1072 1 -1967 -2 -2000 -7z m2356
-1151 c10 -56 10 -86 1 -142 -25 -148 -108 -258 -337 -449 -159 -132 -242
-214 -266 -259 -48 -93 -2 -341 106 -575 19 -42 33 -78 30 -81 -2 -3 -28 17
-57 44 -261 244 -356 470 -275 648 64 140 170 251 390 408 222 159 258 199
302 341 19 59 25 101 26 175 l0 97 34 -68 c18 -38 39 -100 46 -139z m209 -472
c0 -2 -46 -41 -102 -87 -150 -122 -250 -227 -283 -293 -40 -82 -33 -131 33
-239 76 -124 92 -163 92 -233 0 -83 -39 -160 -127 -247 -36 -37 -68 -65 -70
-64 -2 2 6 30 18 63 11 32 22 84 22 115 2 59 7 49 -97 196 -64 90 -88 161 -90
263 -1 101 12 135 86 215 81 89 266 203 488 302 30 14 30 14 30 9z m421 -1047
c113 -38 184 -188 149 -316 -20 -71 -119 -165 -230 -219 -79 -39 -249 -99
-256 -91 -2 2 26 25 62 52 96 70 207 182 243 245 49 87 39 162 -30 211 -39 28
-139 59 -190 59 -21 0 -39 4 -39 8 0 8 99 45 145 55 40 9 113 7 146 -4z
m-1434 -36 c-4 -4 -39 -15 -78 -24 -89 -23 -187 -67 -199 -90 -27 -50 89 -64
515 -64 358 1 557 15 727 50 39 9 73 13 75 11 9 -8 -102 -66 -187 -97 -184
-68 -410 -99 -714 -99 -376 0 -599 50 -644 143 -41 85 93 146 366 166 64 4
123 9 131 10 8 0 11 -2 8 -6z m-140 -401 c-50 -55 1 -76 222 -92 159 -12 385
1 561 31 201 36 180 37 249 -14 34 -25 59 -47 54 -50 -16 -10 -318 -66 -441
-81 -241 -31 -514 -17 -667 34 -67 22 -125 66 -125 94 0 24 45 63 93 80 60 21
74 20 54 -2z m101 -339 c-3 -24 2 -29 33 -40 125 -41 401 -47 605 -13 l141 23
81 -49 c45 -27 82 -52 82 -55 0 -10 -199 -69 -290 -86 -181 -34 -548 -13 -687
39 -145 54 -159 158 -26 194 65 17 64 18 61 -13z m-270 -208 c-2 -3 -40 -14
-83 -25 -102 -26 -185 -64 -185 -85 0 -57 329 -110 755 -122 407 -11 873 38
1128 119 68 21 107 54 92 78 -3 5 -1 10 5 10 17 0 33 -46 26 -75 -20 -79 -299
-167 -671 -212 -191 -22 -923 -26 -1100 -5 -294 35 -425 89 -425 177 0 76 125
117 444 143 11 1 17 0 14 -3z m1845 -258 c-59 -84 -171 -143 -338 -178 -203
-42 -354 -54 -700 -54 -287 1 -351 4 -495 23 -345 48 -345 48 260 47 672 0
796 10 1030 87 75 24 204 86 240 116 36 29 37 7 3 -41z"/>
</g>
</svg>
