<?xml version="1.0" standalone="no"?>
<!DOCTYPE svg PUBLIC "-//W3C//DTD SVG 20010904//EN"
 "http://www.w3.org/TR/2001/REC-SVG-20010904/DTD/svg10.dtd">
<svg version="1.0" xmlns="http://www.w3.org/2000/svg"
 width="512.000000pt" height="512.000000pt" viewBox="0 0 512.000000 512.000000"
 preserveAspectRatio="xMidYMid meet">

<g transform="translate(0.000000,512.000000) scale(0.100000,-0.100000)"
fill="#000000" stroke="none">
<path d="M3771 2790 c-231 -32 -421 -160 -514 -345 -48 -95 -61 -161 -61 -290
0 -178 36 -295 130 -416 93 -121 234 -213 511 -333 263 -113 328 -153 369
-222 31 -52 41 -128 24 -179 -19 -59 -83 -121 -148 -146 -113 -43 -295 -34
-400 20 -67 34 -142 101 -194 172 l-51 69 -51 -30 c-28 -16 -115 -67 -193
-112 -79 -45 -143 -85 -143 -89 0 -3 22 -40 49 -82 182 -278 502 -423 886
-403 152 7 265 35 384 92 75 37 108 60 170 122 128 128 181 263 181 456 -1
243 -83 412 -268 551 -100 75 -221 139 -432 230 -286 124 -350 181 -350 315 0
125 92 204 236 203 117 -1 201 -52 276 -165 l25 -38 129 83 c71 46 155 100
187 120 l57 37 -15 29 c-25 49 -113 154 -168 199 -68 57 -172 109 -263 132
-87 23 -272 33 -363 20z"/>
<path d="M2308 1898 l-3 -873 -23 -56 c-12 -31 -32 -65 -45 -76 -84 -78 -254
-82 -350 -9 -23 17 -66 68 -96 113 l-54 81 -191 -115 c-105 -64 -193 -117
-194 -119 -2 -1 11 -31 29 -66 51 -97 193 -233 296 -287 132 -67 211 -84 393
-84 174 0 262 17 377 74 184 89 299 264 332 503 7 50 11 374 11 932 l0 854
-240 0 -239 0 -3 -872z"/>
</g>
</svg>
